<svg width="68" height="68" viewBox="0 0 68 68" fill="none" xmlns="http://www.w3.org/2000/svg">
<path d="M11.2099 7.19361L11.2097 7.19378C11.0112 7.33032 10.9555 7.38801 10.9172 7.44797C10.8759 7.51257 10.812 7.6513 10.7606 8.01185C10.6533 8.76302 10.641 10.1109 10.641 12.834C10.641 13.1936 10.6402 13.5322 10.6394 13.8514C10.636 15.1821 10.6335 16.1759 10.697 16.9453C10.7769 17.9129 10.9512 18.3076 11.1652 18.5159C11.3842 18.7292 11.8018 18.9015 12.8019 18.9798C13.5948 19.0418 14.6186 19.0394 15.9852 19.0361C16.3129 19.0353 16.6603 19.0345 17.029 19.0345C18.5267 19.0345 19.6924 19.0178 20.6014 18.9675C21.5189 18.9166 22.13 18.8333 22.5388 18.7168C22.9409 18.6022 23.0574 18.481 23.1015 18.4165C23.1543 18.3392 23.2103 18.1874 23.2103 17.8097C23.2103 17.5767 23.163 17.4184 23.0974 17.3041C23.0326 17.1912 22.9247 17.077 22.7331 16.9701C22.3213 16.7406 21.5931 16.5839 20.4138 16.5829H20.4138L18.1309 16.5809L16.0055 16.5791L17.6614 15.2466L18.8673 14.2762L18.8674 14.2762C19.7599 13.5581 21.4337 12.6325 23.1246 11.8333C24.8207 11.0315 26.6417 10.3062 27.856 10.023L27.856 10.0229C33.9789 8.59517 39.3368 9.22481 45.1557 12.0441C53.4506 16.0625 58.5998 24.2993 58.647 33.6043C58.7558 55.1201 32.2922 66.0186 16.7747 50.932L17.2975 50.3942L16.7747 50.932C10.3603 44.6956 8.09167 36.8898 9.93311 27.5862C10.0698 26.8952 10.1684 26.3813 10.2303 25.9853C10.2934 25.5821 10.3104 25.3477 10.3029 25.2009C10.2994 25.1333 10.2912 25.0998 10.2873 25.0869C10.2845 25.0779 10.2831 25.0758 10.2819 25.0742L10.2816 25.0738C10.2694 25.0562 10.2313 25.0125 10.0539 24.885C9.61374 24.5687 9.31723 24.4753 9.1316 24.4704C8.98847 24.4666 8.82838 24.5116 8.61987 24.7396C8.3909 24.9899 8.13951 25.4282 7.88479 26.1319C7.63344 26.8264 7.39662 27.7284 7.16885 28.8608C6.03727 34.4879 7.23551 41.4087 10.3175 46.8707C11.2288 48.4856 12.8465 50.4577 14.7019 52.2932C16.5554 54.1268 18.596 55.7744 20.323 56.7639C21.7048 57.5551 24.2749 58.6753 26.0004 59.2348C27.3686 59.6782 28.2946 59.9235 29.3993 60.0644C30.5188 60.2073 31.8424 60.2459 34.0111 60.2497C36.238 60.2536 37.5399 60.2235 38.6331 60.0808C39.7092 59.9403 40.6034 59.688 42.0108 59.2135M11.2099 7.19361L42.2504 59.9242M11.2099 7.19361C11.7967 6.78963 11.9789 6.74888 12.0496 6.75002C12.0867 6.75062 12.2145 6.76352 12.6772 7.17501L12.6773 7.17511C12.829 7.31 12.9473 7.46003 13.0324 7.9442C13.1271 8.48253 13.1608 9.32742 13.1608 10.7952V14.3222V15.9624L14.4014 14.8895L16.3044 13.2437C22.108 8.22436 31.4695 5.75788 38.88 7.28825C51.1755 9.82744 59.5528 18.7335 61.056 30.808C61.52 34.5349 61.1643 37.9247 59.8527 42.0747L60.5678 42.3007M11.2099 7.19361L60.5678 42.3007M42.0108 59.2135L42.2504 59.9242M42.0108 59.2135C42.0108 59.2135 42.0107 59.2135 42.0107 59.2135L42.2504 59.9242M42.0108 59.2135C50.5602 56.3305 57.4528 49.6687 59.8526 42.0747L60.5678 42.3007M42.2504 59.9242C50.995 56.9754 58.0864 50.1529 60.5678 42.3007M13.9108 14.3222L13.4202 13.7549L13.9108 13.3306V14.3222ZM13.9108 14.3222H14.6608V13.6736L13.9108 14.3222ZM23.1041 38.4151L23.8368 38.5751C22.4455 44.9485 28.4641 51.2986 35.294 50.4603C37.1072 50.2376 38.2814 49.7362 38.8385 49.2017C39.1023 48.9487 39.1972 48.72 39.2109 48.526C39.2248 48.3291 39.1629 48.0561 38.9004 47.7032L38.9003 47.7032C38.76 47.5145 38.6841 47.4833 38.6119 47.4656C38.4849 47.4345 38.2467 47.4292 37.7297 47.5252C35.7617 47.8909 34.5185 48.09 33.5302 48.0799C32.4863 48.0693 31.7458 47.8267 30.7856 47.4093C30.7856 47.4093 30.7856 47.4093 30.7856 47.4093L31.0846 46.7215C28.8492 45.7499 27.1641 43.4465 26.8807 40.9764L23.1041 38.4151ZM23.1041 38.4151L23.8368 38.575M23.1041 38.4151L23.8368 38.575M23.8368 38.575C23.8825 38.3657 24.0416 37.8878 24.3165 37.1574M23.8368 38.575L24.3165 37.1574M24.3165 37.1574C24.5842 36.4465 24.9437 35.5423 25.3671 34.5096M24.3165 37.1574L25.3671 34.5096M25.3671 34.5096C26.2135 32.4449 27.3089 29.8811 28.4196 27.3503M25.3671 34.5096L28.4196 27.3503M28.4196 27.3503C29.5305 24.8194 30.6547 22.3263 31.5588 20.4026M28.4196 27.3503L31.5588 20.4026M31.5588 20.4026C32.0112 19.44 32.4061 18.625 32.7154 18.0209M31.5588 20.4026L32.7154 18.0209M32.7154 18.0209C32.8704 17.7183 33.0008 17.4746 33.1042 17.2943M32.7154 18.0209L33.1042 17.2943M33.1042 17.2943C33.2104 17.1091 33.2626 17.0368 33.2693 17.0275M33.1042 17.2943L33.2693 17.0275M33.2693 17.0275C33.2699 17.0267 33.2701 17.0264 33.2701 17.0265M33.2693 17.0275L33.2701 17.0265M33.2701 17.0265C33.3726 16.9121 33.53 16.7908 33.7006 16.7C33.7835 16.6559 33.8589 16.6246 33.9203 16.6055C33.9759 16.5882 34.005 16.5854 34.0096 16.585C34.0103 16.5849 34.0104 16.5849 34.0098 16.5849C34.0092 16.5849 34.0092 16.5849 34.01 16.585C34.0146 16.5854 34.0437 16.5882 34.0993 16.6055C34.1607 16.6246 34.2361 16.6559 34.319 16.7C34.4896 16.7908 34.647 16.9121 34.7496 17.0265L33.2701 17.0265ZM26.6031 37.9465C26.1144 39.3736 26.0319 40.159 26.1356 41.0619L34.7529 17.032C34.7664 17.0519 34.8147 17.1233 34.9039 17.2801C35.0047 17.4573 35.1328 17.6979 35.2857 17.9977C35.591 18.5962 35.9832 19.4064 36.4341 20.3647C37.3351 22.2801 38.4612 24.7681 39.5768 27.2954C40.6923 29.8226 41.7953 32.3846 42.6504 34.4478C43.0781 35.4798 43.4423 36.3835 43.7146 37.0939C43.9938 37.8225 44.1584 38.3026 44.2083 38.5147C44.4839 39.6884 44.4785 40.6878 44.1483 42.2499L44.1483 42.25C43.8736 43.5505 43.5414 44.1824 43.2386 44.4416C43.1131 44.549 42.9876 44.5967 42.8308 44.602C42.6553 44.6081 42.4044 44.5609 42.0536 44.4038L42.0535 44.4038C41.7934 44.2873 41.7065 44.2379 41.6638 44.2025C41.6623 44.2012 41.6611 44.2002 41.6602 44.1994C41.6577 44.1933 41.6532 44.1805 41.6482 44.1585C41.6256 44.0596 41.6114 43.8716 41.6311 43.4926C41.6502 43.1238 41.6969 42.6375 41.7642 41.9672L41.7642 41.9672L42.0395 39.221L42.0593 39.0241L41.9793 38.843L38.4869 30.9395L38.4869 30.9395C37.5241 28.7611 36.6141 26.7778 35.9227 25.3364C35.5776 24.617 35.2838 24.0259 35.0637 23.6112C34.9547 23.4059 34.8573 23.2314 34.777 23.1029C34.7386 23.0415 34.6918 22.9707 34.6409 22.9079C34.6171 22.8785 34.5739 22.8276 34.5146 22.7773C34.5139 22.7768 34.5131 22.776 34.5121 22.7752C34.4818 22.7491 34.296 22.5891 34.0098 22.5891C33.8424 22.5891 33.7169 22.6438 33.6529 22.6774C33.5842 22.7134 33.5338 22.7529 33.5039 22.7783C33.4447 22.8286 33.4016 22.8795 33.3779 22.9089C33.3271 22.9718 33.2803 23.0427 33.2418 23.1044C33.1613 23.2335 33.0635 23.4089 32.954 23.6154C32.7328 24.0326 32.4374 24.6273 32.0903 25.3513C31.3949 26.8017 30.4793 28.7975 29.5106 30.9897L29.5106 30.9897C27.9677 34.4815 27.0799 36.5542 26.6031 37.9465Z" fill="white" stroke="white" stroke-width="1.5"/>
</svg>
