<svg width="68" height="68" viewBox="0 0 68 68" fill="none" xmlns="http://www.w3.org/2000/svg">
<mask id="path-1-inside-1_290_117" fill="white">
<path fill-rule="evenodd" clip-rule="evenodd" d="M10.7846 6.57587C9.93201 7.16238 9.89101 7.44991 9.89101 12.834C9.89101 20.1514 9.51435 19.7845 17.029 19.7845C23.0281 19.7845 23.9603 19.5191 23.9603 17.8097C23.9603 16.4577 22.8436 15.8349 20.4144 15.8329L18.1316 15.8309L19.3375 14.8605C20.9752 13.5429 25.7571 11.2826 28.0263 10.7534C33.9764 9.36586 39.1592 9.97212 44.8287 12.7191C52.8626 16.611 57.8512 24.5852 57.897 33.6081C58.0024 54.4327 32.3573 65.0358 17.2975 50.3942C11.0793 44.3486 8.87279 36.806 10.6688 27.7319C11.2139 24.9758 11.2043 24.7882 10.4916 24.276C8.509 22.8513 7.35974 24.1081 6.43358 28.7129C5.26341 34.5319 6.50191 41.6348 9.66429 47.2393C11.5813 50.6363 16.3456 55.3494 19.9501 57.4146C21.382 58.2346 24.0005 59.3748 25.7692 59.9483C28.5441 60.8476 29.6744 60.9922 34.0098 60.9997C38.4545 61.0076 39.406 60.8832 42.2504 59.9242C50.995 56.9754 58.0864 50.1529 60.5678 42.3007C61.9072 38.0628 62.2794 34.5639 61.8003 30.7154C60.2559 18.3097 51.6294 9.15535 39.0317 6.55375C31.3893 4.97549 21.7912 7.50679 15.8138 12.6764L13.9108 14.3222V10.7952C13.9108 7.88002 13.7834 7.15488 13.1756 6.61457C12.2647 5.80451 11.913 5.79898 10.7846 6.57587ZM32.7114 16.5261C31.7704 17.5767 23.5788 36.2401 23.1041 38.4151C21.593 45.3372 28.0878 52.1004 35.3854 51.2047C39.1294 50.7449 40.8619 49.083 39.502 47.2555C39.0848 46.6946 38.6579 46.59 37.5926 46.7878C33.6247 47.5252 32.9172 47.5181 31.0846 46.7215C28.8492 45.7499 27.1641 43.4465 26.8807 40.9764C26.7058 39.4531 27.1022 38.2958 30.1966 31.2928C32.1297 26.9182 33.8458 23.3391 34.0098 23.3391C34.1738 23.3391 35.8798 26.8957 37.8009 31.2426L41.2933 39.1462L41.0179 41.8923C40.7506 44.5551 40.7731 44.6523 41.7471 45.0883C43.4008 45.8289 44.3262 45.037 44.8821 42.405C45.2294 40.7616 45.2447 39.6478 44.9384 38.3432C44.4307 36.182 36.1881 17.5083 35.3082 16.5261C34.9677 16.1461 34.3836 15.8349 34.0098 15.8349C33.6359 15.8349 33.0519 16.1461 32.7114 16.5261Z"/>
</mask>
<path fill-rule="evenodd" clip-rule="evenodd" d="M10.7846 6.57587C9.93201 7.16238 9.89101 7.44991 9.89101 12.834C9.89101 20.1514 9.51435 19.7845 17.029 19.7845C23.0281 19.7845 23.9603 19.5191 23.9603 17.8097C23.9603 16.4577 22.8436 15.8349 20.4144 15.8329L18.1316 15.8309L19.3375 14.8605C20.9752 13.5429 25.7571 11.2826 28.0263 10.7534C33.9764 9.36586 39.1592 9.97212 44.8287 12.7191C52.8626 16.611 57.8512 24.5852 57.897 33.6081C58.0024 54.4327 32.3573 65.0358 17.2975 50.3942C11.0793 44.3486 8.87279 36.806 10.6688 27.7319C11.2139 24.9758 11.2043 24.7882 10.4916 24.276C8.509 22.8513 7.35974 24.1081 6.43358 28.7129C5.26341 34.5319 6.50191 41.6348 9.66429 47.2393C11.5813 50.6363 16.3456 55.3494 19.9501 57.4146C21.382 58.2346 24.0005 59.3748 25.7692 59.9483C28.5441 60.8476 29.6744 60.9922 34.0098 60.9997C38.4545 61.0076 39.406 60.8832 42.2504 59.9242C50.995 56.9754 58.0864 50.1529 60.5678 42.3007C61.9072 38.0628 62.2794 34.5639 61.8003 30.7154C60.2559 18.3097 51.6294 9.15535 39.0317 6.55375C31.3893 4.97549 21.7912 7.50679 15.8138 12.6764L13.9108 14.3222V10.7952C13.9108 7.88002 13.7834 7.15488 13.1756 6.61457C12.2647 5.80451 11.913 5.79898 10.7846 6.57587ZM32.7114 16.5261C31.7704 17.5767 23.5788 36.2401 23.1041 38.4151C21.593 45.3372 28.0878 52.1004 35.3854 51.2047C39.1294 50.7449 40.8619 49.083 39.502 47.2555C39.0848 46.6946 38.6579 46.59 37.5926 46.7878C33.6247 47.5252 32.9172 47.5181 31.0846 46.7215C28.8492 45.7499 27.1641 43.4465 26.8807 40.9764C26.7058 39.4531 27.1022 38.2958 30.1966 31.2928C32.1297 26.9182 33.8458 23.3391 34.0098 23.3391C34.1738 23.3391 35.8798 26.8957 37.8009 31.2426L41.2933 39.1462L41.0179 41.8923C40.7506 44.5551 40.7731 44.6523 41.7471 45.0883C43.4008 45.8289 44.3262 45.037 44.8821 42.405C45.2294 40.7616 45.2447 39.6478 44.9384 38.3432C44.4307 36.182 36.1881 17.5083 35.3082 16.5261C34.9677 16.1461 34.3836 15.8349 34.0098 15.8349C33.6359 15.8349 33.0519 16.1461 32.7114 16.5261Z" fill="white" stroke="white" stroke-width="3" mask="url(#path-1-inside-1_290_117)"/>
</svg>
