<svg width="68" height="68" viewBox="0 0 68 68" fill="none" xmlns="http://www.w3.org/2000/svg">
<path d="M18.6764 18.2156L18.6764 18.2157C18.5285 18.4926 18.4608 18.9378 18.5232 19.5461C18.5844 20.1434 18.7657 20.8439 19.0522 21.5847C19.6261 23.0688 20.5968 24.6502 21.7535 25.8095C23.7559 27.8166 26.2019 28.834 29.4885 28.9829L32.3067 29.1106L32.7841 29.1323V29.6101V31.6599V33.7094V34.785L31.9618 34.0917L30.8881 33.1864L30.8879 33.1863C30.3338 32.7186 29.099 31.9168 28.1593 31.4221L28.1593 31.422C27.3978 31.021 26.9224 30.8187 26.2765 30.7043C25.6059 30.5856 24.7373 30.5588 23.1824 30.5573C21.7094 30.5557 20.8553 30.581 20.2967 30.6676C19.7757 30.7483 19.5564 30.875 19.3342 31.0762L18.6764 18.2156ZM18.6764 18.2156C18.7165 18.1405 18.8644 17.9829 19.1446 17.8041M18.6764 18.2156L19.1446 17.8041M24.6528 40.8724L24.6529 40.8724C25.6362 41.4089 26.3405 41.6042 26.8243 41.5695C27.0538 41.5531 27.23 41.4854 27.3736 41.3773C27.5204 41.267 27.6594 41.0945 27.7793 40.8308C27.8878 40.592 27.9266 40.4146 27.9248 40.2741C27.9231 40.1426 27.8857 40.0119 27.784 39.8611C27.5578 39.5257 27.0454 39.1317 26.0464 38.5875C25.1547 38.1016 24.134 37.2021 23.3424 36.3199C22.9437 35.8755 22.59 35.4209 22.3324 35.007C22.2037 34.8001 22.0939 34.5952 22.0149 34.4004C21.9383 34.2116 21.8778 34.0014 21.8778 33.793C21.8778 33.4597 22.0377 33.1867 22.3017 33.0185C22.5335 32.8709 22.8156 32.8215 23.0754 32.8113C23.603 32.7906 24.2784 32.925 24.9732 33.1452C26.3683 33.5873 28.0389 34.44 29.1074 35.4537C31.0346 37.2816 32.4695 40.8275 32.6955 44.1427C32.734 44.7083 32.749 45.1732 32.7307 45.5334C32.7215 45.7136 32.7034 45.8805 32.6713 46.0272C32.6405 46.1681 32.5892 46.3267 32.4913 46.4629C32.3823 46.6146 32.2125 46.7396 31.9867 46.7633C31.7857 46.7845 31.6115 46.7169 31.4883 46.6502C31.248 46.5199 30.9996 46.2795 30.7522 46.0056L30.7521 46.0055C30.6488 45.8909 30.3279 45.6546 29.8328 45.3583C29.3591 45.0748 28.7804 44.7681 28.2148 44.509C27.3351 44.1062 26.734 43.882 26.0637 43.7515C25.3859 43.6196 24.6142 43.5788 23.3858 43.5746H23.3858C21.0945 43.5663 20.3911 43.7134 19.7757 44.1173C19.3066 44.4254 19.224 44.5278 19.1836 44.6497C19.1588 44.7246 19.141 44.8433 19.1474 45.0631C19.1538 45.283 19.1827 45.5668 19.2292 45.9613C19.344 46.9322 19.8162 48.2368 20.4715 49.4871C21.1269 50.7376 21.9301 51.8661 22.661 52.5094C24.5512 54.1729 27.1329 55.1987 29.8345 55.3447L29.8346 55.3447L32.3111 55.4789L32.7841 55.5046V55.9782V57.4282C32.7841 58.3536 32.9858 58.84 33.2446 59.0747L33.2448 59.0748C33.5609 59.3616 33.8251 59.4733 34.0201 59.4955C34.2009 59.5161 34.3661 59.466 34.5251 59.3269C34.8764 59.0198 35.2 58.2601 35.2 57.005C35.2 56.5011 35.2358 55.954 35.2935 55.4751C35.3493 55.0114 35.4312 54.5625 35.5402 54.2827C35.7011 53.8696 36.0254 52.8849 36.258 52.0998L36.258 52.0997C36.8982 49.94 38.6072 48.0253 40.759 47.0211C41.661 46.6001 42.7869 46.3114 43.6926 46.2015C44.1419 46.147 44.571 46.1322 44.9058 46.1822C45.0688 46.2066 45.2539 46.2524 45.4118 46.3496C45.5845 46.456 45.7646 46.6556 45.7646 46.9534C45.7646 47.1231 45.6944 47.2954 45.6483 47.4002C45.591 47.5307 45.513 47.6795 45.4241 47.8355C45.2454 48.1489 45.0045 48.5232 44.7465 48.8953C44.4879 49.2681 44.2072 49.646 43.9468 49.9666C43.6945 50.2773 43.4366 50.5654 43.2268 50.7326L43.2267 50.7326C42.8849 51.0049 42.037 51.5229 41.3409 51.8952L41.3407 51.8953C40.6219 52.2794 40.27 52.6519 40.1418 52.9763C40.0269 53.2672 40.0528 53.6235 40.368 54.1057C40.5208 54.3395 40.6642 54.4783 40.8019 54.5591C40.9332 54.6362 41.0893 54.6782 41.3029 54.6687C41.7673 54.6478 42.4483 54.3888 43.5165 53.7746L43.5166 53.7746C46.2669 52.1936 48.3957 48.9997 48.7589 45.9251C48.8043 45.5413 48.8319 45.2652 48.8374 45.0512C48.843 44.8377 48.8248 44.7222 48.8 44.6491C48.7591 44.5279 48.6739 44.4232 48.2084 44.1174L24.6528 40.8724ZM24.6528 40.8724C22.5871 39.7455 20.763 37.6619 19.7208 35.6208M24.6528 40.8724L19.7208 35.6208M44.5983 43.5746H44.5982C43.3699 43.5788 42.5982 43.6196 41.9204 43.7515C41.25 43.882 40.649 44.1062 39.7693 44.509C39.2036 44.7681 38.625 45.0748 38.1513 45.3583C37.6562 45.6546 37.3353 45.8909 37.2319 46.0055L37.2319 46.0055C36.9938 46.2692 36.7595 46.4952 36.535 46.6276C36.4213 46.6946 36.2703 46.762 36.0951 46.7687C35.8973 46.7763 35.7123 46.7043 35.5715 46.565C35.4467 46.4416 35.3803 46.2894 35.3411 46.1615C35.3004 46.0289 35.2768 45.881 35.2628 45.7276C35.2349 45.4211 35.2405 45.0284 35.2685 44.5594L35.3717 42.8318L35.3983 42.3855L35.8448 42.3623L38.3029 42.2342C42.9388 41.9926 46.9978 39.1036 48.5295 35.0003L48.5295 35.0003C48.975 33.807 49.1727 32.9652 49.171 32.3458C49.1693 31.7611 48.9915 31.3858 48.65 31.0763C48.4277 30.875 48.2084 30.7484 47.6873 30.6676C47.1288 30.581 46.2747 30.5557 44.8016 30.5573C43.2468 30.5588 42.3781 30.5856 41.7076 30.7043C41.0616 30.8187 40.5862 31.021 39.8248 31.422L39.8247 31.4221C38.8851 31.9168 37.6503 32.7186 37.0961 33.1863L37.0959 33.1864L36.0223 34.0917L35.2 34.785V33.7094V31.6106C35.2 30.0718 35.3816 29.0952 35.9423 28.2972C36.252 27.8554 36.6176 26.936 36.7261 26.2974C36.7261 26.2974 36.7261 26.2974 36.7261 26.2974L37.2191 26.3811L44.5983 43.5746ZM44.5983 43.5746C46.8895 43.5663 47.5929 43.7134 48.2083 44.1173L44.5983 43.5746ZM27.2148 47.0163L27.2148 47.0163C28.2103 47.481 29.4818 48.3967 30.0671 49.0939C30.5809 49.7059 31.0332 50.4135 31.3246 51.014C31.4691 51.312 31.584 51.6038 31.6417 51.8564C31.6702 51.9816 31.6902 52.1202 31.6819 52.2566C31.6739 52.3863 31.6355 52.5819 31.479 52.7387C31.365 52.8529 31.2294 52.8992 31.1435 52.9207C31.0497 52.9441 30.953 52.9528 30.865 52.9552C30.6883 52.9601 30.4808 52.9408 30.2639 52.9088C29.826 52.844 29.2786 52.716 28.7145 52.5547C27.6013 52.2362 26.3249 51.7592 25.6385 51.3131C24.2774 50.4287 22.9291 48.8246 22.4047 47.4348L27.2148 47.0163ZM27.2148 47.0163C26.7093 46.7804 26.1018 46.5698 25.5284 46.4175C24.9624 46.2672 24.3909 46.1634 23.9651 46.1624C23.6837 46.1617 23.444 46.1667 23.249 46.1853M27.2148 47.0163L23.249 46.1853M19.1446 17.8041C19.4076 17.6362 19.7269 17.4882 20.0302 17.4023L19.1446 17.8041ZM19.7208 35.6208C19.2005 34.6017 18.8912 33.6241 18.8296 32.8105M19.7208 35.6208L18.8296 32.8105M18.8296 32.8105C18.7676 31.9928 18.9576 31.4175 19.3341 31.0763L18.8296 32.8105ZM23.249 46.1853C23.0667 46.2027 22.8615 46.2364 22.6891 46.3304M23.249 46.1853L22.6891 46.3304M22.6891 46.3304C22.5945 46.3821 22.4983 46.4579 22.4245 46.5683M22.6891 46.3304L22.4245 46.5683M22.4245 46.5683C22.3497 46.68 22.316 46.8 22.3072 46.9115M22.4245 46.5683L22.3072 46.9115M22.3072 46.9115C22.2915 47.1098 22.3539 47.3003 22.4046 47.4346L22.3072 46.9115ZM29.5731 8.91234L29.5733 8.91221C30.0397 8.58457 30.2597 8.50348 30.4135 8.50011C30.5539 8.49703 30.7432 8.5575 31.1548 8.85889C31.2528 8.93065 31.3142 8.99572 31.3639 9.07946C31.4173 9.16937 31.4718 9.30574 31.5199 9.53857C31.6192 10.0196 31.6692 10.7917 31.7105 12.1512C31.7671 14.0133 31.6891 15.137 31.4554 15.8077C31.344 16.1275 31.2078 16.3109 31.0611 16.4255C30.9132 16.5409 30.7102 16.6212 30.4045 16.6566L30.4044 16.6566C29.9873 16.705 29.748 16.6948 29.5978 16.6454C29.4911 16.6103 29.4013 16.5482 29.314 16.349C29.2135 16.1201 29.1357 15.747 29.0881 15.1389C29.0412 14.5398 29.0265 13.7589 29.0265 12.7407C29.0265 10.999 29.0421 10.1183 29.134 9.60552C29.1772 9.36426 29.2311 9.24714 29.2819 9.17329C29.3344 9.09685 29.4103 9.02656 29.5731 8.91234ZM36.2519 12.2489L36.2519 12.2489C36.3023 10.8503 36.3575 10.053 36.4602 9.55658C36.5101 9.31556 36.5661 9.17402 36.6207 9.08096C36.6714 8.99469 36.7329 8.92947 36.8292 8.85889C37.2408 8.5575 37.4302 8.49703 37.5706 8.50011C37.7243 8.50348 37.9443 8.58457 38.4108 8.91221L38.411 8.91237C38.5736 9.02643 38.6497 9.09688 38.7023 9.17329C38.7531 9.24701 38.8069 9.36354 38.8501 9.60299C38.9419 10.1123 38.9575 10.9863 38.9575 12.7143C38.9575 13.7127 38.9451 14.4781 38.9033 15.0681C38.8611 15.6656 38.791 16.0407 38.697 16.28C38.6122 16.4956 38.5207 16.5723 38.4198 16.6185C38.2851 16.6802 38.0717 16.7142 37.6891 16.7142C37.3397 16.7142 37.1103 16.6512 36.9485 16.5495C36.7923 16.4514 36.647 16.2845 36.5264 15.9742C36.2701 15.3148 36.1826 14.1684 36.2519 12.2489ZM32.1966 44.1767C32.3493 46.4169 32.1047 46.7572 31.1233 45.6705L32.1966 44.1767ZM45.9076 21.8283L45.4645 21.5967L20.0304 17.4022C20.9456 17.1434 22.2896 17.0862 23.6845 17.2209C25.0758 17.3554 26.4539 17.6746 27.4333 18.124C28.4178 18.5758 29.4915 19.2901 30.4099 20.069C31.3369 20.8552 32.0581 21.6669 32.3828 22.2966L32.3829 22.2968C32.7424 22.9935 33.2951 23.4987 33.9827 23.5063C34.6735 23.5138 35.2313 23.017 35.5936 22.3251L35.5937 22.3251C36.5117 20.5717 38.4034 19.0615 40.6474 18.1212C42.8879 17.1822 45.4025 16.8444 47.5099 17.3512L47.6268 16.865L47.5099 17.3512C48.4934 17.5876 48.9937 17.8629 49.244 18.1859C49.4778 18.4875 49.5725 18.9382 49.4393 19.7611C48.9053 23.0593 46.2459 26.5233 43.1453 27.946C42.128 28.4127 41.4715 28.5683 41.0396 28.5219C40.8402 28.5005 40.6926 28.4362 40.57 28.3356C40.4419 28.2305 40.316 28.065 40.1983 27.806C40.014 27.4005 40.0425 27.0474 40.2407 26.7226C40.4545 26.3724 40.8964 26.0089 41.6268 25.7037L41.6269 25.7037C42.4256 25.3698 43.3049 24.7564 44.0679 24.0663C44.8299 23.377 45.5187 22.5724 45.9076 21.8283ZM26.7254 20.7915L26.7253 20.7915C25.8564 20.3498 24.6895 20.0109 23.7411 19.8508C23.269 19.7711 22.8193 19.7301 22.471 19.7538C22.3029 19.7652 22.1124 19.7942 21.9479 19.8718C21.7751 19.9534 21.5362 20.1441 21.5362 20.484C21.5362 20.7594 21.6571 21.0656 21.7894 21.3312C21.932 21.6174 22.1295 21.9364 22.3588 22.2612C22.8171 22.9105 23.4282 23.6196 24.0494 24.1822L24.3494 23.8509L24.0494 24.1822C25.0735 25.1095 26.6973 25.8839 28.0524 26.2817C28.7286 26.4802 29.3854 26.5995 29.8975 26.5775C30.1489 26.5667 30.422 26.52 30.6476 26.383C30.9053 26.2265 31.0761 25.9636 31.0761 25.6293C31.0761 25.2228 30.8689 24.7751 30.6202 24.3732C30.3585 23.9501 29.9975 23.4944 29.5865 23.0517C28.7689 22.171 27.7039 21.2889 26.7254 20.7915ZM42.1826 38.4649L42.1828 38.4648C42.9824 38.0213 43.944 37.1297 44.6948 36.2626C45.0744 35.8241 45.4146 35.3753 45.6632 34.9707C45.7874 34.7686 45.894 34.5691 45.9709 34.3814C46.0447 34.2011 46.1062 33.996 46.1062 33.793C46.1062 33.4636 45.9451 33.1864 45.6617 33.0229C45.4191 32.883 45.1209 32.8452 44.8341 32.8471C44.2495 32.8509 43.4386 33.0252 42.4475 33.3353L42.5968 33.8125L42.4475 33.3353C39.7806 34.1697 37.6167 36.0601 36.7308 38.4051C36.6809 38.5374 36.6 38.7517 36.6098 38.9583C36.6159 39.086 36.6563 39.2372 36.771 39.3688C36.8798 39.4935 37.015 39.5537 37.1229 39.5846C37.3185 39.6408 37.5603 39.6369 37.7978 39.6219C38.0535 39.6057 38.3846 39.5691 38.7978 39.52L38.7978 39.52C39.838 39.3965 41.342 38.9307 42.1826 38.4649Z" fill="white" stroke="white"/>
</svg>
