<svg width="68" height="68" viewBox="0 0 68 68" fill="none" xmlns="http://www.w3.org/2000/svg">
<mask id="path-1-inside-1_290_111" fill="white">
<path fill-rule="evenodd" clip-rule="evenodd" d="M29.2859 8.50306C28.5808 8.9978 28.5265 9.30046 28.5265 12.7407C28.5265 16.8178 28.7602 17.3505 30.462 17.1533C31.9264 16.9838 32.323 15.8457 32.2103 12.1361C32.1283 9.43673 32.0104 8.86598 31.4502 8.45547C30.6048 7.83644 30.2232 7.84466 29.2859 8.50306ZM36.5338 8.45547C35.974 8.86564 35.8524 9.45282 35.7523 12.2309C35.6143 16.0515 36.0662 17.2142 37.6891 17.2142C39.2598 17.2142 39.4575 16.7106 39.4575 12.7143C39.4575 9.30149 39.4029 8.99745 38.6982 8.50306C37.7608 7.84466 37.3793 7.83644 36.5338 8.45547ZM19.8941 16.9212C19.186 17.1218 18.4392 17.598 18.2353 17.9801C17.3745 19.5921 18.9762 23.7338 21.3995 26.1627C23.5027 28.2707 26.0732 29.3287 29.4659 29.4824L32.2841 29.6101V31.6599V33.7094L31.2104 32.8042C30.6202 32.306 29.3522 31.485 28.3923 30.9796C26.8346 30.1593 26.2768 30.0603 23.183 30.0573C20.2524 30.0542 19.6075 30.1542 18.9984 30.7057C16.8577 32.6457 20.0731 38.9437 24.4134 41.3113C26.4271 42.41 27.6503 42.3224 28.2345 41.0377C28.7424 39.9202 28.2802 39.2351 26.2857 38.1484C24.6399 37.2517 22.3778 34.7304 22.3778 33.793C22.3778 32.532 26.7677 33.9231 28.7632 35.8164C30.5751 37.5348 31.9766 40.9484 32.1966 44.1767C32.3493 46.4169 32.1047 46.7572 31.1233 45.6705C30.8026 45.3151 29.5875 44.5879 28.423 44.0545C26.6355 43.2358 25.8522 43.0831 23.3876 43.0746C21.1071 43.0663 20.2576 43.203 19.5013 43.6994C18.5988 44.2921 18.5472 44.4482 18.7327 46.0201C18.9824 48.1319 20.7395 51.4844 22.3307 52.8848C24.3109 54.6275 27.0016 55.6923 29.8075 55.844L32.2841 55.9782V57.4282C32.2841 58.3985 32.4907 59.0661 32.9088 59.4451C34.375 60.7753 35.7 59.617 35.7 57.005C35.7 56.0402 35.8377 54.8966 36.0061 54.4642C36.1745 54.0318 36.5034 53.0317 36.7374 52.2418C37.3338 50.2296 38.9383 48.4225 40.9705 47.4741C42.6644 46.6836 45.2646 46.3683 45.2646 46.9534C45.2646 47.3766 43.5703 49.8195 42.9152 50.3416C42.6105 50.5843 41.7958 51.0849 41.105 51.4543C39.5846 52.2668 39.202 53.2357 39.9494 54.3793C40.6699 55.4811 41.626 55.4383 43.7657 54.2081C46.6498 52.5503 48.8732 49.2193 49.2555 45.9838C49.4362 44.4533 49.3809 44.2893 48.4828 43.6994C47.7265 43.203 46.877 43.0663 44.5965 43.0746C42.1319 43.0831 41.3486 43.2358 39.561 44.0545C38.3965 44.5879 37.1815 45.3151 36.8607 45.6705C35.9282 46.7034 35.6573 46.4354 35.7676 44.5893L35.8708 42.8616L38.3289 42.7336C43.1505 42.4822 47.3921 39.4772 48.9979 35.1752C49.899 32.7614 49.8956 31.5302 48.9856 30.7057C48.3766 30.1542 47.7316 30.0542 44.8011 30.0573C41.7073 30.0603 41.1495 30.1593 39.5918 30.9796C38.6319 31.485 37.3639 32.306 36.7736 32.8042L35.7 33.7094V31.6106C35.7 30.099 35.8821 29.2527 36.3514 28.5847C36.7094 28.0742 37.0999 27.0827 37.2191 26.3811C37.7096 23.4931 41.6103 20.2957 44.6426 20.2957C46.1145 20.2957 46.1309 20.3217 45.4645 21.5967C44.7611 22.9423 42.8926 24.6326 41.434 25.2424C39.8668 25.8973 39.2447 26.9166 39.7431 28.0129C40.2992 29.2362 41.2984 29.3434 43.3538 28.4005C46.6027 26.9098 49.3716 23.3072 49.9329 19.841C50.2154 18.0955 49.636 17.3481 47.6268 16.865C43.1573 15.7903 37.1279 18.317 35.1507 22.0932C34.5078 23.3206 33.468 23.3093 32.8272 22.0675C32.089 20.636 29.7101 18.6187 27.6418 17.6696C25.5488 16.7092 21.8928 16.3559 19.8941 16.9212ZM26.4988 21.2372C28.3192 22.1627 30.5761 24.5936 30.5761 25.6293C30.5761 26.7923 26.2857 25.5327 24.385 23.8116C23.2028 22.7409 22.0362 21.0883 22.0362 20.484C22.0362 19.9321 24.8732 20.411 26.4988 21.2372ZM45.6062 33.793C45.6062 34.6636 43.3896 37.2236 41.9402 38.0275C41.1624 38.4586 39.7219 38.9068 38.7388 39.0235C37.08 39.2204 36.9694 39.1885 37.1986 38.5818C38.0218 36.4026 40.0526 34.6085 42.5968 33.8125C44.5589 33.1986 45.6062 33.1918 45.6062 33.793ZM27.0034 47.4694C27.9503 47.9114 29.1568 48.7872 29.6842 49.4154C30.6605 50.5782 31.4024 52.1076 31.125 52.3856C30.7746 52.7369 27.1523 51.7005 25.9109 50.8938C24.6279 50.0601 23.3548 48.5366 22.8725 47.2581C22.6812 46.7517 22.8499 46.6596 23.9638 46.6624C24.6884 46.6641 26.0561 47.0273 27.0034 47.4694Z"/>
</mask>
<path fill-rule="evenodd" clip-rule="evenodd" d="M29.2859 8.50306C28.5808 8.9978 28.5265 9.30046 28.5265 12.7407C28.5265 16.8178 28.7602 17.3505 30.462 17.1533C31.9264 16.9838 32.323 15.8457 32.2103 12.1361C32.1283 9.43673 32.0104 8.86598 31.4502 8.45547C30.6048 7.83644 30.2232 7.84466 29.2859 8.50306ZM36.5338 8.45547C35.974 8.86564 35.8524 9.45282 35.7523 12.2309C35.6143 16.0515 36.0662 17.2142 37.6891 17.2142C39.2598 17.2142 39.4575 16.7106 39.4575 12.7143C39.4575 9.30149 39.4029 8.99745 38.6982 8.50306C37.7608 7.84466 37.3793 7.83644 36.5338 8.45547ZM19.8941 16.9212C19.186 17.1218 18.4392 17.598 18.2353 17.9801C17.3745 19.5921 18.9762 23.7338 21.3995 26.1627C23.5027 28.2707 26.0732 29.3287 29.4659 29.4824L32.2841 29.6101V31.6599V33.7094L31.2104 32.8042C30.6202 32.306 29.3522 31.485 28.3923 30.9796C26.8346 30.1593 26.2768 30.0603 23.183 30.0573C20.2524 30.0542 19.6075 30.1542 18.9984 30.7057C16.8577 32.6457 20.0731 38.9437 24.4134 41.3113C26.4271 42.41 27.6503 42.3224 28.2345 41.0377C28.7424 39.9202 28.2802 39.2351 26.2857 38.1484C24.6399 37.2517 22.3778 34.7304 22.3778 33.793C22.3778 32.532 26.7677 33.9231 28.7632 35.8164C30.5751 37.5348 31.9766 40.9484 32.1966 44.1767C32.3493 46.4169 32.1047 46.7572 31.1233 45.6705C30.8026 45.3151 29.5875 44.5879 28.423 44.0545C26.6355 43.2358 25.8522 43.0831 23.3876 43.0746C21.1071 43.0663 20.2576 43.203 19.5013 43.6994C18.5988 44.2921 18.5472 44.4482 18.7327 46.0201C18.9824 48.1319 20.7395 51.4844 22.3307 52.8848C24.3109 54.6275 27.0016 55.6923 29.8075 55.844L32.2841 55.9782V57.4282C32.2841 58.3985 32.4907 59.0661 32.9088 59.4451C34.375 60.7753 35.7 59.617 35.7 57.005C35.7 56.0402 35.8377 54.8966 36.0061 54.4642C36.1745 54.0318 36.5034 53.0317 36.7374 52.2418C37.3338 50.2296 38.9383 48.4225 40.9705 47.4741C42.6644 46.6836 45.2646 46.3683 45.2646 46.9534C45.2646 47.3766 43.5703 49.8195 42.9152 50.3416C42.6105 50.5843 41.7958 51.0849 41.105 51.4543C39.5846 52.2668 39.202 53.2357 39.9494 54.3793C40.6699 55.4811 41.626 55.4383 43.7657 54.2081C46.6498 52.5503 48.8732 49.2193 49.2555 45.9838C49.4362 44.4533 49.3809 44.2893 48.4828 43.6994C47.7265 43.203 46.877 43.0663 44.5965 43.0746C42.1319 43.0831 41.3486 43.2358 39.561 44.0545C38.3965 44.5879 37.1815 45.3151 36.8607 45.6705C35.9282 46.7034 35.6573 46.4354 35.7676 44.5893L35.8708 42.8616L38.3289 42.7336C43.1505 42.4822 47.3921 39.4772 48.9979 35.1752C49.899 32.7614 49.8956 31.5302 48.9856 30.7057C48.3766 30.1542 47.7316 30.0542 44.8011 30.0573C41.7073 30.0603 41.1495 30.1593 39.5918 30.9796C38.6319 31.485 37.3639 32.306 36.7736 32.8042L35.7 33.7094V31.6106C35.7 30.099 35.8821 29.2527 36.3514 28.5847C36.7094 28.0742 37.0999 27.0827 37.2191 26.3811C37.7096 23.4931 41.6103 20.2957 44.6426 20.2957C46.1145 20.2957 46.1309 20.3217 45.4645 21.5967C44.7611 22.9423 42.8926 24.6326 41.434 25.2424C39.8668 25.8973 39.2447 26.9166 39.7431 28.0129C40.2992 29.2362 41.2984 29.3434 43.3538 28.4005C46.6027 26.9098 49.3716 23.3072 49.9329 19.841C50.2154 18.0955 49.636 17.3481 47.6268 16.865C43.1573 15.7903 37.1279 18.317 35.1507 22.0932C34.5078 23.3206 33.468 23.3093 32.8272 22.0675C32.089 20.636 29.7101 18.6187 27.6418 17.6696C25.5488 16.7092 21.8928 16.3559 19.8941 16.9212ZM26.4988 21.2372C28.3192 22.1627 30.5761 24.5936 30.5761 25.6293C30.5761 26.7923 26.2857 25.5327 24.385 23.8116C23.2028 22.7409 22.0362 21.0883 22.0362 20.484C22.0362 19.9321 24.8732 20.411 26.4988 21.2372ZM45.6062 33.793C45.6062 34.6636 43.3896 37.2236 41.9402 38.0275C41.1624 38.4586 39.7219 38.9068 38.7388 39.0235C37.08 39.2204 36.9694 39.1885 37.1986 38.5818C38.0218 36.4026 40.0526 34.6085 42.5968 33.8125C44.5589 33.1986 45.6062 33.1918 45.6062 33.793ZM27.0034 47.4694C27.9503 47.9114 29.1568 48.7872 29.6842 49.4154C30.6605 50.5782 31.4024 52.1076 31.125 52.3856C30.7746 52.7369 27.1523 51.7005 25.9109 50.8938C24.6279 50.0601 23.3548 48.5366 22.8725 47.2581C22.6812 46.7517 22.8499 46.6596 23.9638 46.6624C24.6884 46.6641 26.0561 47.0273 27.0034 47.4694Z" fill="white" stroke="white" stroke-width="2" mask="url(#path-1-inside-1_290_111)"/>
</svg>
