<svg width="68" height="68" viewBox="0 0 68 68" fill="none" xmlns="http://www.w3.org/2000/svg">
<path d="M25.7591 56.2707C25.7594 56.2712 25.7594 56.2711 25.759 56.2703C25.7574 56.2661 25.7489 56.2448 25.7368 56.1965C25.7232 56.1423 25.7086 56.0686 25.6934 55.9725C25.6632 55.7804 25.6342 55.5181 25.607 55.1804C25.5526 54.5061 25.5073 53.5548 25.4713 52.3119C25.3992 49.8274 25.3643 46.198 25.3643 41.3319C25.3643 32.6165 25.4165 28.0759 25.9226 25.5729C26.1729 24.3348 26.5231 23.661 26.9809 23.2283C27.4465 22.7883 28.0716 22.5485 29.002 22.2845C31.1239 21.6826 32.9144 21.7879 34.7727 22.6083L34.7727 22.6083C35.5236 22.9397 36.1283 23.144 36.7939 23.2324C37.4555 23.3202 38.154 23.2902 39.0872 23.1847L41.0805 22.9596L41.8158 24.6649C42.0185 25.1353 42.1629 25.5008 42.2732 26.004C42.3849 26.5133 42.4643 27.1763 42.5189 28.2356C42.6284 30.3585 42.6357 34.0003 42.6357 41.0406C42.6357 46.014 42.6009 49.7161 42.5289 52.2466C42.4928 53.5125 42.4475 54.4802 42.3932 55.1652C42.3659 55.5082 42.3368 55.7745 42.3065 55.9693C42.2914 56.0667 42.2767 56.1414 42.263 56.1962C42.2483 56.2555 42.2389 56.2744 42.2409 56.2707C41.9793 56.7811 41.7691 57.1256 41.5071 57.3805C41.2552 57.6256 40.9323 57.809 40.4099 57.9434C39.3229 58.2229 37.5002 58.264 34 58.264C30.4998 58.264 28.6771 58.2229 27.59 57.9434C27.0677 57.809 26.7448 57.6256 26.4929 57.3805C26.2308 57.1256 26.0207 56.7811 25.7591 56.2707ZM25.7591 56.2707L25.4031 56.453L25.7591 56.2706C25.7591 56.2706 25.7591 56.2706 25.7591 56.2707ZM27.3674 14.9943L27.3674 14.9943C27.4638 15.0673 27.4742 15.1 27.4802 15.1429C27.492 15.2264 27.4772 15.4011 27.3452 15.7698C27.0841 16.4986 26.4599 17.7427 25.2723 20.0234L22.6452 25.0675L22.6 25.1544V25.2523V40.8066C22.6 48.204 22.6094 52.1231 22.7134 54.3749C22.7654 55.5008 22.8418 56.2302 22.9579 56.7779C23.0767 57.3382 23.2355 57.6994 23.4335 58.0867C23.7691 58.7433 24.1066 59.2927 24.5546 59.7338C25.0092 60.1813 25.5578 60.4984 26.2893 60.7256C27.7169 61.169 29.9063 61.2849 33.5997 61.3538C36.6522 61.4108 38.3244 61.4298 39.4367 61.324C40.5881 61.2145 41.1623 60.9684 42.0123 60.5271L42.0124 60.5271C42.0585 60.5032 42.1043 60.4795 42.1497 60.456C42.8712 60.0824 43.497 59.7584 43.9735 59.2364C44.4955 58.6645 44.8108 57.894 45.0126 56.6706C45.4004 54.3192 45.4003 50.0534 45.4 41.6518C45.4 41.4186 45.4 41.1822 45.4 40.9426V25.3479V25.2531L45.3574 25.1684L42.8019 20.0796C41.5357 17.558 40.9223 16.3235 40.7051 15.6225C40.599 15.2802 40.6129 15.1385 40.6367 15.0644C40.6637 14.9801 40.7256 14.9008 40.9191 14.7077C41.7897 13.8389 42.1884 12.4279 42.1873 11.0939C42.1862 9.76345 41.7865 8.37567 40.8993 7.5733L40.8993 7.57328C40.4686 7.1838 39.9902 6.97371 39.0603 6.84615C38.1518 6.72151 36.7575 6.66863 34.459 6.6225C32.5521 6.58422 31.1277 6.59371 30.0891 6.65923C29.0714 6.72343 28.3598 6.84355 27.9301 7.06758C26.599 7.76102 25.9026 9.33342 25.7953 10.8705C25.6879 12.4095 26.1586 14.0782 27.3674 14.9943ZM28.9689 11.6611L28.9689 11.661C28.908 11.0277 28.8742 10.6327 28.9211 10.3555C28.9424 10.2299 28.9772 10.1544 29.0173 10.1021C29.0567 10.0509 29.1213 9.9959 29.2447 9.94386C29.5135 9.83058 29.9763 9.76378 30.7833 9.74204C31.5763 9.72068 32.6423 9.74263 34.0819 9.7729L34.082 9.7729L38.9036 9.87406V11.2465V12.6106H34H29.0599L28.9689 11.6611ZM34.9028 19.4816L34.9027 19.4816C34.2182 19.1331 33.6735 18.9183 33.0364 18.8295C32.4089 18.742 31.7172 18.7806 30.7467 18.893L30.7467 18.893L29.1515 19.0779L29.9075 17.5396L30.8772 15.5667H34.0762H37.2784L38.3652 17.7151L38.7221 17.5345L38.3652 17.7151C38.6885 18.3542 38.9543 18.9723 39.1222 19.45C39.2067 19.6902 39.2627 19.8848 39.2904 20.0239C39.2962 20.0528 39.3003 20.0772 39.3032 20.0976C39.2917 20.1041 39.2774 20.1114 39.26 20.1192C39.1815 20.1545 39.0657 20.1878 38.9094 20.2123C38.5974 20.2612 38.1801 20.2665 37.7079 20.2246C36.761 20.1406 35.6749 19.8748 34.9028 19.4816ZM39.3086 20.1736C39.3085 20.1735 39.3085 20.1708 39.3091 20.166C39.3091 20.1714 39.3088 20.1738 39.3086 20.1736Z" fill="white" stroke="white" stroke-width="0.8"/>
</svg>
