<svg width="69" height="68" viewBox="0 0 69 68" fill="none" xmlns="http://www.w3.org/2000/svg">
<mask id="path-1-outside-1_290_100" maskUnits="userSpaceOnUse" x="5.5" y="7" width="58" height="55" fill="black">
<rect fill="white" x="5.5" y="7" width="58" height="55"/>
<path fill-rule="evenodd" clip-rule="evenodd" d="M26.1389 11.4053L19.5278 14.7992L19.4224 22.6694L19.3174 30.5399L12.9085 33.7006L6.5 36.8618V40.1586C6.5 43.3759 6.52256 43.4554 7.43061 43.4554C8.45417 43.4554 8.83333 42.8141 8.83333 41.0842C8.83333 40.4584 8.92317 39.9465 9.03322 39.9465C9.14328 39.9465 11.5058 41.0881 14.2832 42.4834L19.3333 45.0204V51.4507C19.3333 54.9873 19.2435 57.881 19.1334 57.881C19.0234 57.881 16.6609 56.7394 13.8834 55.344L8.83333 52.8071L8.82789 49.7882C8.82089 45.8064 8.58872 45.0149 7.42672 45.0149C6.50194 45.0149 6.5 45.0251 6.5 49.6709V54.3264L13.0886 57.6634C16.7122 59.4986 20.1018 61 20.6213 61C21.5675 61 33.4356 55.1331 34.4627 54.1576C34.9239 53.7198 35.3633 54.0898 37.2903 56.5398L39.5715 59.4405L44.7165 59.3894C47.5461 59.3613 51.1736 59.2299 52.7778 59.097L55.6944 58.8557L56.7503 56.7113C57.9834 54.206 58.0266 52.6176 56.8611 52.6176C56.3124 52.6176 55.7967 53.2024 55.1111 54.6021L54.1389 56.5866L48.3596 56.8653C45.1808 57.0189 42.5138 57.0778 42.4326 56.9967C42.3517 56.9152 43.4647 54.2843 44.9067 51.1505C46.7667 47.1066 47.7537 45.39 48.3056 45.2387C49.1821 44.9986 59.3889 44.9315 59.3889 45.1662C59.3889 45.2492 58.8355 46.5027 58.1592 47.9519C57.005 50.4245 56.9716 50.6171 57.6136 51.0877C57.9901 51.3637 58.5186 51.5045 58.7888 51.4004C59.3831 51.1719 62.5 44.7081 62.5 43.7042C62.5 43.0285 54.5336 32.5013 53.239 31.4666C52.8964 31.1929 51.5539 30.9793 50.1757 30.9793H47.7222V22.8234V14.6678L44.0958 12.8136C40.3676 10.9075 39.1667 10.7694 39.1667 12.2471C39.1667 12.8202 39.8231 13.3656 41.5883 14.2589L44.0095 15.4843L39.1577 17.9483C36.4888 19.3031 34.0431 20.426 33.7222 20.4427C32.8282 20.4899 23.6309 15.6671 23.8717 15.2772C23.9879 15.0885 26.268 13.8986 28.9385 12.6335C33.6674 10.3928 33.8241 10.3484 34.9511 10.9328C36.4654 11.718 37.8056 11.5254 37.8056 10.523C37.8056 9.60877 35.1747 7.98375 33.7222 8.00012C33.1875 8.00636 29.775 9.53859 26.1389 11.4053ZM27.5054 20.2603L32.5556 22.7972V29.2275C32.5556 32.7641 32.4241 35.6504 32.2639 35.6414C32.1037 35.6325 29.6972 34.4484 26.9167 33.0097L21.8611 30.3944L21.7542 24.0589C21.6834 19.8677 21.7841 17.7233 22.0517 17.7233C22.2737 17.7233 24.728 18.8649 27.5054 20.2603ZM45.3889 24.1661V30.6089L44.3914 30.989C43.8427 31.198 42.1689 31.3691 40.6713 31.3691C37.3544 31.3691 36.7155 31.6814 35.9109 33.6971C35.5663 34.5611 35.1953 35.2679 35.0864 35.2679C34.9779 35.2679 34.8889 32.462 34.8889 29.033V22.7976L39.8472 20.2809C42.5745 18.8965 44.937 17.7549 45.0972 17.7436C45.2574 17.7323 45.3889 20.6225 45.3889 24.1661ZM42.0196 23.0128C41.8908 23.3489 41.9546 23.7934 42.1611 24.0004C42.7196 24.5603 43.8333 23.9871 43.8333 23.1399C43.8333 22.2261 42.3602 22.1231 42.0196 23.0128ZM42.0196 26.9116C41.8908 27.2477 41.9721 27.7097 42.2 27.9382C42.8047 28.5445 43.8333 28.0123 43.8333 27.0925C43.8333 26.1311 42.3738 25.9857 42.0196 26.9116ZM38.4861 27.7553C38.2189 27.8485 38 28.2427 38 28.6306C38 29.3889 38.6708 29.8003 39.4583 29.5246C39.7259 29.4314 39.9444 29.0373 39.9444 28.6493C39.9444 27.891 39.2736 27.4797 38.4861 27.7553ZM25.561 35.0757C28.3384 36.4711 30.6111 37.6981 30.6111 37.8018C30.6111 38.1565 21.2926 42.6756 20.6031 42.6554C20.2254 42.6441 17.7319 41.5259 15.0618 40.1699L10.2069 37.7047L15.2562 35.142C18.0333 33.7326 20.3518 32.5704 20.4082 32.559C20.465 32.5477 22.7836 33.6803 25.561 35.0757ZM55.2779 37.7581C57.1112 40.0927 58.6111 42.1544 58.6111 42.3392C58.6111 42.5244 56.0301 42.6655 52.875 42.653L47.1389 42.6304L43.7902 38.2669L40.4418 33.9034L43.4013 33.7084C45.0292 33.6012 47.6172 33.5135 49.1529 33.5135H51.9444L55.2779 37.7581ZM42.0549 39.8545L45.4356 44.2457L43.6152 48.2369C42.6138 50.4319 41.3728 53.0656 40.8579 54.0898L39.9211 55.9522L36.2422 51.3033L32.5637 46.6548L34.7318 42.0335C35.9241 39.4919 37.1514 36.8111 37.4587 36.0762C37.7826 35.3026 38.1559 34.8921 38.3461 35.1014C38.5266 35.3003 40.1957 37.4392 42.0549 39.8545ZM32.1861 41.2136C32.0278 41.9103 31.5215 43.2195 31.0603 44.1221C29.9648 46.268 30.0025 47.4224 31.2166 48.8689C31.7634 49.5204 32.3024 50.6304 32.4144 51.3357L32.6186 52.6176L27.3332 55.2493C24.4266 56.6969 21.9622 57.881 21.8576 57.881C21.7526 57.881 21.6667 55.027 21.6667 51.5388V45.1962L26.8194 42.5938C29.6533 41.1625 32.085 39.9812 32.2231 39.9691C32.3607 39.9566 32.3444 40.5169 32.1861 41.2136Z"/>
</mask>
<path fill-rule="evenodd" clip-rule="evenodd" d="M26.1389 11.4053L19.5278 14.7992L19.4224 22.6694L19.3174 30.5399L12.9085 33.7006L6.5 36.8618V40.1586C6.5 43.3759 6.52256 43.4554 7.43061 43.4554C8.45417 43.4554 8.83333 42.8141 8.83333 41.0842C8.83333 40.4584 8.92317 39.9465 9.03322 39.9465C9.14328 39.9465 11.5058 41.0881 14.2832 42.4834L19.3333 45.0204V51.4507C19.3333 54.9873 19.2435 57.881 19.1334 57.881C19.0234 57.881 16.6609 56.7394 13.8834 55.344L8.83333 52.8071L8.82789 49.7882C8.82089 45.8064 8.58872 45.0149 7.42672 45.0149C6.50194 45.0149 6.5 45.0251 6.5 49.6709V54.3264L13.0886 57.6634C16.7122 59.4986 20.1018 61 20.6213 61C21.5675 61 33.4356 55.1331 34.4627 54.1576C34.9239 53.7198 35.3633 54.0898 37.2903 56.5398L39.5715 59.4405L44.7165 59.3894C47.5461 59.3613 51.1736 59.2299 52.7778 59.097L55.6944 58.8557L56.7503 56.7113C57.9834 54.206 58.0266 52.6176 56.8611 52.6176C56.3124 52.6176 55.7967 53.2024 55.1111 54.6021L54.1389 56.5866L48.3596 56.8653C45.1808 57.0189 42.5138 57.0778 42.4326 56.9967C42.3517 56.9152 43.4647 54.2843 44.9067 51.1505C46.7667 47.1066 47.7537 45.39 48.3056 45.2387C49.1821 44.9986 59.3889 44.9315 59.3889 45.1662C59.3889 45.2492 58.8355 46.5027 58.1592 47.9519C57.005 50.4245 56.9716 50.6171 57.6136 51.0877C57.9901 51.3637 58.5186 51.5045 58.7888 51.4004C59.3831 51.1719 62.5 44.7081 62.5 43.7042C62.5 43.0285 54.5336 32.5013 53.239 31.4666C52.8964 31.1929 51.5539 30.9793 50.1757 30.9793H47.7222V22.8234V14.6678L44.0958 12.8136C40.3676 10.9075 39.1667 10.7694 39.1667 12.2471C39.1667 12.8202 39.8231 13.3656 41.5883 14.2589L44.0095 15.4843L39.1577 17.9483C36.4888 19.3031 34.0431 20.426 33.7222 20.4427C32.8282 20.4899 23.6309 15.6671 23.8717 15.2772C23.9879 15.0885 26.268 13.8986 28.9385 12.6335C33.6674 10.3928 33.8241 10.3484 34.9511 10.9328C36.4654 11.718 37.8056 11.5254 37.8056 10.523C37.8056 9.60877 35.1747 7.98375 33.7222 8.00012C33.1875 8.00636 29.775 9.53859 26.1389 11.4053ZM27.5054 20.2603L32.5556 22.7972V29.2275C32.5556 32.7641 32.4241 35.6504 32.2639 35.6414C32.1037 35.6325 29.6972 34.4484 26.9167 33.0097L21.8611 30.3944L21.7542 24.0589C21.6834 19.8677 21.7841 17.7233 22.0517 17.7233C22.2737 17.7233 24.728 18.8649 27.5054 20.2603ZM45.3889 24.1661V30.6089L44.3914 30.989C43.8427 31.198 42.1689 31.3691 40.6713 31.3691C37.3544 31.3691 36.7155 31.6814 35.9109 33.6971C35.5663 34.5611 35.1953 35.2679 35.0864 35.2679C34.9779 35.2679 34.8889 32.462 34.8889 29.033V22.7976L39.8472 20.2809C42.5745 18.8965 44.937 17.7549 45.0972 17.7436C45.2574 17.7323 45.3889 20.6225 45.3889 24.1661ZM42.0196 23.0128C41.8908 23.3489 41.9546 23.7934 42.1611 24.0004C42.7196 24.5603 43.8333 23.9871 43.8333 23.1399C43.8333 22.2261 42.3602 22.1231 42.0196 23.0128ZM42.0196 26.9116C41.8908 27.2477 41.9721 27.7097 42.2 27.9382C42.8047 28.5445 43.8333 28.0123 43.8333 27.0925C43.8333 26.1311 42.3738 25.9857 42.0196 26.9116ZM38.4861 27.7553C38.2189 27.8485 38 28.2427 38 28.6306C38 29.3889 38.6708 29.8003 39.4583 29.5246C39.7259 29.4314 39.9444 29.0373 39.9444 28.6493C39.9444 27.891 39.2736 27.4797 38.4861 27.7553ZM25.561 35.0757C28.3384 36.4711 30.6111 37.6981 30.6111 37.8018C30.6111 38.1565 21.2926 42.6756 20.6031 42.6554C20.2254 42.6441 17.7319 41.5259 15.0618 40.1699L10.2069 37.7047L15.2562 35.142C18.0333 33.7326 20.3518 32.5704 20.4082 32.559C20.465 32.5477 22.7836 33.6803 25.561 35.0757ZM55.2779 37.7581C57.1112 40.0927 58.6111 42.1544 58.6111 42.3392C58.6111 42.5244 56.0301 42.6655 52.875 42.653L47.1389 42.6304L43.7902 38.2669L40.4418 33.9034L43.4013 33.7084C45.0292 33.6012 47.6172 33.5135 49.1529 33.5135H51.9444L55.2779 37.7581ZM42.0549 39.8545L45.4356 44.2457L43.6152 48.2369C42.6138 50.4319 41.3728 53.0656 40.8579 54.0898L39.9211 55.9522L36.2422 51.3033L32.5637 46.6548L34.7318 42.0335C35.9241 39.4919 37.1514 36.8111 37.4587 36.0762C37.7826 35.3026 38.1559 34.8921 38.3461 35.1014C38.5266 35.3003 40.1957 37.4392 42.0549 39.8545ZM32.1861 41.2136C32.0278 41.9103 31.5215 43.2195 31.0603 44.1221C29.9648 46.268 30.0025 47.4224 31.2166 48.8689C31.7634 49.5204 32.3024 50.6304 32.4144 51.3357L32.6186 52.6176L27.3332 55.2493C24.4266 56.6969 21.9622 57.881 21.8576 57.881C21.7526 57.881 21.6667 55.027 21.6667 51.5388V45.1962L26.8194 42.5938C29.6533 41.1625 32.085 39.9812 32.2231 39.9691C32.3607 39.9566 32.3444 40.5169 32.1861 41.2136Z" fill="white"/>
<path fill-rule="evenodd" clip-rule="evenodd" d="M26.1389 11.4053L19.5278 14.7992L19.4224 22.6694L19.3174 30.5399L12.9085 33.7006L6.5 36.8618V40.1586C6.5 43.3759 6.52256 43.4554 7.43061 43.4554C8.45417 43.4554 8.83333 42.8141 8.83333 41.0842C8.83333 40.4584 8.92317 39.9465 9.03322 39.9465C9.14328 39.9465 11.5058 41.0881 14.2832 42.4834L19.3333 45.0204V51.4507C19.3333 54.9873 19.2435 57.881 19.1334 57.881C19.0234 57.881 16.6609 56.7394 13.8834 55.344L8.83333 52.8071L8.82789 49.7882C8.82089 45.8064 8.58872 45.0149 7.42672 45.0149C6.50194 45.0149 6.5 45.0251 6.5 49.6709V54.3264L13.0886 57.6634C16.7122 59.4986 20.1018 61 20.6213 61C21.5675 61 33.4356 55.1331 34.4627 54.1576C34.9239 53.7198 35.3633 54.0898 37.2903 56.5398L39.5715 59.4405L44.7165 59.3894C47.5461 59.3613 51.1736 59.2299 52.7778 59.097L55.6944 58.8557L56.7503 56.7113C57.9834 54.206 58.0266 52.6176 56.8611 52.6176C56.3124 52.6176 55.7967 53.2024 55.1111 54.6021L54.1389 56.5866L48.3596 56.8653C45.1808 57.0189 42.5138 57.0778 42.4326 56.9967C42.3517 56.9152 43.4647 54.2843 44.9067 51.1505C46.7667 47.1066 47.7537 45.39 48.3056 45.2387C49.1821 44.9986 59.3889 44.9315 59.3889 45.1662C59.3889 45.2492 58.8355 46.5027 58.1592 47.9519C57.005 50.4245 56.9716 50.6171 57.6136 51.0877C57.9901 51.3637 58.5186 51.5045 58.7888 51.4004C59.3831 51.1719 62.5 44.7081 62.5 43.7042C62.5 43.0285 54.5336 32.5013 53.239 31.4666C52.8964 31.1929 51.5539 30.9793 50.1757 30.9793H47.7222V22.8234V14.6678L44.0958 12.8136C40.3676 10.9075 39.1667 10.7694 39.1667 12.2471C39.1667 12.8202 39.8231 13.3656 41.5883 14.2589L44.0095 15.4843L39.1577 17.9483C36.4888 19.3031 34.0431 20.426 33.7222 20.4427C32.8282 20.4899 23.6309 15.6671 23.8717 15.2772C23.9879 15.0885 26.268 13.8986 28.9385 12.6335C33.6674 10.3928 33.8241 10.3484 34.9511 10.9328C36.4654 11.718 37.8056 11.5254 37.8056 10.523C37.8056 9.60877 35.1747 7.98375 33.7222 8.00012C33.1875 8.00636 29.775 9.53859 26.1389 11.4053ZM27.5054 20.2603L32.5556 22.7972V29.2275C32.5556 32.7641 32.4241 35.6504 32.2639 35.6414C32.1037 35.6325 29.6972 34.4484 26.9167 33.0097L21.8611 30.3944L21.7542 24.0589C21.6834 19.8677 21.7841 17.7233 22.0517 17.7233C22.2737 17.7233 24.728 18.8649 27.5054 20.2603ZM45.3889 24.1661V30.6089L44.3914 30.989C43.8427 31.198 42.1689 31.3691 40.6713 31.3691C37.3544 31.3691 36.7155 31.6814 35.9109 33.6971C35.5663 34.5611 35.1953 35.2679 35.0864 35.2679C34.9779 35.2679 34.8889 32.462 34.8889 29.033V22.7976L39.8472 20.2809C42.5745 18.8965 44.937 17.7549 45.0972 17.7436C45.2574 17.7323 45.3889 20.6225 45.3889 24.1661ZM42.0196 23.0128C41.8908 23.3489 41.9546 23.7934 42.1611 24.0004C42.7196 24.5603 43.8333 23.9871 43.8333 23.1399C43.8333 22.2261 42.3602 22.1231 42.0196 23.0128ZM42.0196 26.9116C41.8908 27.2477 41.9721 27.7097 42.2 27.9382C42.8047 28.5445 43.8333 28.0123 43.8333 27.0925C43.8333 26.1311 42.3738 25.9857 42.0196 26.9116ZM38.4861 27.7553C38.2189 27.8485 38 28.2427 38 28.6306C38 29.3889 38.6708 29.8003 39.4583 29.5246C39.7259 29.4314 39.9444 29.0373 39.9444 28.6493C39.9444 27.891 39.2736 27.4797 38.4861 27.7553ZM25.561 35.0757C28.3384 36.4711 30.6111 37.6981 30.6111 37.8018C30.6111 38.1565 21.2926 42.6756 20.6031 42.6554C20.2254 42.6441 17.7319 41.5259 15.0618 40.1699L10.2069 37.7047L15.2562 35.142C18.0333 33.7326 20.3518 32.5704 20.4082 32.559C20.465 32.5477 22.7836 33.6803 25.561 35.0757ZM55.2779 37.7581C57.1112 40.0927 58.6111 42.1544 58.6111 42.3392C58.6111 42.5244 56.0301 42.6655 52.875 42.653L47.1389 42.6304L43.7902 38.2669L40.4418 33.9034L43.4013 33.7084C45.0292 33.6012 47.6172 33.5135 49.1529 33.5135H51.9444L55.2779 37.7581ZM42.0549 39.8545L45.4356 44.2457L43.6152 48.2369C42.6138 50.4319 41.3728 53.0656 40.8579 54.0898L39.9211 55.9522L36.2422 51.3033L32.5637 46.6548L34.7318 42.0335C35.9241 39.4919 37.1514 36.8111 37.4587 36.0762C37.7826 35.3026 38.1559 34.8921 38.3461 35.1014C38.5266 35.3003 40.1957 37.4392 42.0549 39.8545ZM32.1861 41.2136C32.0278 41.9103 31.5215 43.2195 31.0603 44.1221C29.9648 46.268 30.0025 47.4224 31.2166 48.8689C31.7634 49.5204 32.3024 50.6304 32.4144 51.3357L32.6186 52.6176L27.3332 55.2493C24.4266 56.6969 21.9622 57.881 21.8576 57.881C21.7526 57.881 21.6667 55.027 21.6667 51.5388V45.1962L26.8194 42.5938C29.6533 41.1625 32.085 39.9812 32.2231 39.9691C32.3607 39.9566 32.3444 40.5169 32.1861 41.2136Z" stroke="white" mask="url(#path-1-outside-1_290_100)"/>
</svg>
